<svg width="38" height="38" viewBox="0 0 38 38" fill="none" xmlns="http://www.w3.org/2000/svg">
<path d="M37.75 32.5417C37.75 35.4187 35.4187 37.75 32.5417 37.75H5.45833C2.58229 37.75 0.25 35.4187 0.25 32.5417V5.45833C0.25 2.58125 2.58229 0.25 5.45833 0.25H32.5417C35.4187 0.25 37.75 2.58125 37.75 5.45833V32.5417Z" fill="#3F51B5"/>
<path d="M29.8 20.0417H26.2917V33.5833H21.0834V20.0417H17.9584V15.875H21.0834V13.3646C21.0855 9.71041 22.6032 7.54166 26.9084 7.54166H30.4584V11.7083H28.0761C26.4 11.7083 26.2917 12.3333 26.2917 13.5031V15.875H30.4584L29.8 20.0417Z" fill="white"/>
</svg>
