<svg width="201" height="186" viewBox="0 0 201 186" fill="none" xmlns="http://www.w3.org/2000/svg">
<path d="M24.3832 151.313C-9.76575 114.099 1.67697 69.0032 37.0518 36.5417C72.4266 4.08021 130.069 -14.2191 164.218 22.9947C198.367 60.2084 206.673 123.294 171.298 155.755C135.924 188.217 58.5322 188.527 24.3832 151.313Z" fill="#107E57"/>
<path d="M31.1636 144.429C-0.203682 110.247 10.3342 68.7988 42.861 38.9508C75.3879 9.10269 128.373 -7.74118 159.74 26.4412C191.108 60.6236 198.712 118.594 166.185 148.442C133.658 178.29 62.5308 178.611 31.1636 144.429Z" fill="white"/>
<path d="M149.312 125.375H147.75V69.125C147.75 67.4674 147.092 65.8777 145.919 64.7056C144.747 63.5335 143.158 62.875 141.5 62.875H133.688V42.5625C133.688 42.1481 133.523 41.7507 133.23 41.4576C132.937 41.1646 132.539 41 132.125 41H75.875C75.4606 41 75.0632 41.1646 74.7701 41.4576C74.4771 41.7507 74.3125 42.1481 74.3125 42.5625V62.875H66.5C64.8424 62.875 63.2527 63.5335 62.0806 64.7056C60.9085 65.8777 60.25 67.4674 60.25 69.125V125.375H58.6875C57.4443 125.375 56.252 125.869 55.3729 126.748C54.4939 127.627 54 128.819 54 130.062V133.188C54 135.26 54.8231 137.247 56.2882 138.712C57.7534 140.177 59.7405 141 61.8125 141H146.188C148.26 141 150.247 140.177 151.712 138.712C153.177 137.247 154 135.26 154 133.188V130.062C154 128.819 153.506 127.627 152.627 126.748C151.748 125.869 150.556 125.375 149.312 125.375ZM69.625 119.125V72.25H74.3125V119.125H69.625ZM77.4375 53.5H130.562V119.125H77.4375V53.5ZM133.688 72.25H138.375V119.125H133.688V72.25ZM77.4375 44.125H130.562V50.375H77.4375V44.125ZM63.375 69.125C63.375 68.2962 63.7042 67.5013 64.2903 66.9153C64.8763 66.3292 65.6712 66 66.5 66H74.3125V69.125H68.0625C67.6481 69.125 67.2507 69.2896 66.9576 69.5826C66.6646 69.8757 66.5 70.2731 66.5 70.6875V120.688C66.5 121.102 66.6646 121.499 66.9576 121.792C67.2507 122.085 67.6481 122.25 68.0625 122.25H139.938C140.352 122.25 140.749 122.085 141.042 121.792C141.335 121.499 141.5 121.102 141.5 120.688V70.6875C141.5 70.2731 141.335 69.8757 141.042 69.5826C140.749 69.2896 140.352 69.125 139.938 69.125H133.688V66H141.5C142.329 66 143.124 66.3292 143.71 66.9153C144.296 67.5013 144.625 68.2962 144.625 69.125V125.375H63.375V69.125ZM116.703 128.5L115.656 130.062H92.3438L91.2969 128.5H116.703ZM150.875 133.188C150.875 134.431 150.381 135.623 149.502 136.502C148.623 137.381 147.431 137.875 146.188 137.875H61.8125C60.5693 137.875 59.377 137.381 58.4979 136.502C57.6189 135.623 57.125 134.431 57.125 133.188V130.062C57.125 129.648 57.2896 129.251 57.5826 128.958C57.8757 128.665 58.2731 128.5 58.6875 128.5H87.5312L90.2031 132.484C90.8594 133.484 89.5625 133.188 116.5 133.188C117.578 133.188 117.656 132.719 120.469 128.5H149.312C149.727 128.5 150.124 128.665 150.417 128.958C150.71 129.251 150.875 129.648 150.875 130.062V133.188Z" fill="#107E57"/>
<path d="M82.125 45.6875C81.7106 45.6875 81.3132 45.8521 81.0201 46.1451C80.7271 46.4382 80.5625 46.8356 80.5625 47.25C80.5625 47.6644 80.7271 48.0618 81.0201 48.3549C81.3132 48.6479 81.7106 48.8125 82.125 48.8125C82.5394 48.8125 82.9368 48.6479 83.2299 48.3549C83.5229 48.0618 83.6875 47.6644 83.6875 47.25C83.6875 46.8356 83.5229 46.4382 83.2299 46.1451C82.9368 45.8521 82.5394 45.6875 82.125 45.6875Z" fill="#107E57"/>
<path d="M88.375 45.6875C87.9606 45.6875 87.5632 45.8521 87.2701 46.1451C86.9771 46.4382 86.8125 46.8356 86.8125 47.25C86.8125 47.6644 86.9771 48.0618 87.2701 48.3549C87.5632 48.6479 87.9606 48.8125 88.375 48.8125C88.7894 48.8125 89.1868 48.6479 89.4799 48.3549C89.7729 48.0618 89.9375 47.6644 89.9375 47.25C89.9375 46.8356 89.7729 46.4382 89.4799 46.1451C89.1868 45.8521 88.7894 45.6875 88.375 45.6875Z" fill="#107E57"/>
<path d="M94.625 45.6875C94.2106 45.6875 93.8132 45.8521 93.5201 46.1451C93.2271 46.4382 93.0625 46.8356 93.0625 47.25C93.0625 47.6644 93.2271 48.0618 93.5201 48.3549C93.8132 48.6479 94.2106 48.8125 94.625 48.8125C95.0394 48.8125 95.4368 48.6479 95.7299 48.3549C96.0229 48.0618 96.1875 47.6644 96.1875 47.25C96.1875 46.8356 96.0229 46.4382 95.7299 46.1451C95.4368 45.8521 95.0394 45.6875 94.625 45.6875Z" fill="#107E57"/>
<path d="M92.7342 86.7656C94.4085 88.2453 96.3642 89.372 98.4842 90.0781C100.757 90.8431 103.165 91.127 105.553 90.9118C107.942 90.6966 110.259 89.987 112.359 88.8281C127.844 80.2188 121.594 56.625 104 56.625C100.503 56.6314 97.0919 57.7041 94.2209 59.6999C91.3499 61.6957 89.1559 64.5197 87.9317 67.7949C86.7075 71.0702 86.5114 74.6409 87.3695 78.0305C88.2276 81.4201 90.0991 84.4674 92.7342 86.7656ZM99.8748 70.9688V69.5469C99.8748 68.4529 100.309 67.4036 101.083 66.6301C101.857 65.8565 102.906 65.4219 104 65.4219C105.094 65.4219 106.143 65.8565 106.917 66.6301C107.69 67.4036 108.125 68.4529 108.125 69.5469V70.9688C108.125 72.0628 107.69 73.112 106.917 73.8856C106.143 74.6592 105.094 75.0937 104 75.0937C102.906 75.0937 101.857 74.6592 101.083 73.8856C100.309 73.112 99.8748 72.0628 99.8748 70.9688ZM111.937 85.4063C109.599 87.0051 106.832 87.8606 104 87.8606C101.167 87.8606 98.4006 87.0051 96.0623 85.4063C95.5936 85.0781 95.6561 85.3281 96.0623 83.8438C96.6183 82.2002 97.6756 80.7722 99.0854 79.7609C100.495 78.7495 102.187 78.2055 103.922 78.2055C105.657 78.2055 107.348 78.7495 108.758 79.7609C110.168 80.7722 111.225 82.2002 111.781 83.8438C112.344 85.3281 112.406 85.0781 111.937 85.4063ZM104 59.75C106.672 59.7516 109.288 60.5143 111.542 61.9488C113.796 63.3834 115.595 65.4303 116.727 67.8501C117.86 70.2699 118.28 72.9623 117.938 75.6121C117.596 78.2619 116.507 80.7595 114.797 82.8125C114.306 81.3841 113.537 80.0673 112.534 78.9381C111.531 77.809 110.314 76.89 108.953 76.2344C109.828 75.3737 110.49 74.3216 110.889 73.1611C111.288 72.0006 111.411 70.7633 111.25 69.5469C111.25 67.6241 110.486 65.78 109.126 64.4204C107.767 63.0607 105.923 62.2969 104 62.2969C102.077 62.2969 100.233 63.0607 98.8733 64.4204C97.5137 65.78 96.7498 67.6241 96.7498 69.5469C96.7498 71.8281 96.7498 74.0312 99.0467 76.2344C97.6861 76.89 96.4691 77.809 95.466 78.9381C94.4629 80.0673 93.6937 81.3841 93.203 82.8125C91.493 80.7595 90.4033 78.2619 90.0614 75.6121C89.7194 72.9623 90.1395 70.2699 91.2723 67.8501C92.4051 65.4303 94.2039 63.3834 96.4579 61.9488C98.712 60.5143 101.328 59.7516 104 59.75Z" fill="#107E57"/>
<path d="M121.188 94.125H86.8125C86.3981 94.125 86.0007 94.2896 85.7076 94.5826C85.4146 94.8757 85.25 95.2731 85.25 95.6875V101.938C85.25 102.352 85.4146 102.749 85.7076 103.042C86.0007 103.335 86.3981 103.5 86.8125 103.5H121.188C121.602 103.5 121.999 103.335 122.292 103.042C122.585 102.749 122.75 102.352 122.75 101.938V95.6875C122.75 95.2731 122.585 94.8757 122.292 94.5826C121.999 94.2896 121.602 94.125 121.188 94.125ZM119.625 100.375H88.375V97.25H119.625V100.375Z" fill="#107E57"/>
<path d="M121.188 106.625H86.8125C86.3981 106.625 86.0007 106.79 85.7076 107.083C85.4146 107.376 85.25 107.773 85.25 108.188V114.438C85.25 114.852 85.4146 115.249 85.7076 115.542C86.0007 115.835 86.3981 116 86.8125 116H121.188C121.602 116 121.999 115.835 122.292 115.542C122.585 115.249 122.75 114.852 122.75 114.438V108.188C122.75 107.773 122.585 107.376 122.292 107.083C121.999 106.79 121.602 106.625 121.188 106.625ZM119.625 112.875H88.375V109.75H119.625V112.875Z" fill="#107E57"/>
</svg>
