<svg width="38" height="38" viewBox="0 0 38 38" fill="none" xmlns="http://www.w3.org/2000/svg">
<path d="M37.4063 8.04167C36.9896 8.3125 36.3959 8.5625 36.1459 8.84375C36.0521 8.9375 36 9.04167 36.0209 9.14583V10.2187L35.7084 11.2708L35.3959 12.3125L35.0521 13.4583L34.3438 15.8021L33.6563 18.1146L33.1355 19.8542C33.1355 20.125 33.125 20.3958 33.1042 20.6562C33.0313 21.6562 32.823 22.6146 32.4896 23.5104C32.2917 24.0625 32.0521 24.5938 31.7605 25.0938C31.6563 25.2917 31.5313 25.4896 31.4063 25.6771C30.9896 26.3333 30.4896 26.9375 29.9375 27.4688C29.5105 27.8958 29.0417 28.2917 28.5313 28.625C28.5313 28.625 28.5313 28.625 28.5209 28.625C28.4375 28.6979 28.3438 28.7604 28.2396 28.8125C27.9167 29.0312 27.573 29.2188 27.2188 29.3854C26.9792 29.5104 26.7396 29.6146 26.4896 29.7083C26.4375 29.7396 26.375 29.7604 26.323 29.7812C25.7292 30.0625 25.0417 30.25 24.3542 30.3437C24.3125 30.3542 24.2813 30.3542 24.2396 30.3646C23.823 30.4375 23.4167 30.5 23 30.5312C22.8125 30.5521 22.6146 30.5625 22.4271 30.5625L21.6875 30.5208L18.125 30.3333C18.125 30.3229 18.1146 30.3333 18.1146 30.3333L16.323 30.2396C16.1875 30.2396 16.0417 30.2396 15.9063 30.2292C15.3438 30.2083 14.8021 30.1458 14.2605 30.0312C14.25 30.0312 14.25 30.0312 14.25 30.0312C13.2605 29.8437 12.3125 29.5104 11.4271 29.0625C10.9375 28.8125 10.4584 28.5312 10.0105 28.2083C9.82296 28.0729 9.64587 27.9271 9.46879 27.7708C8.96879 27.3542 8.52087 26.9062 8.10421 26.4479C8.04171 26.3854 7.98962 26.3229 7.93754 26.2604C7.87504 26.1979 7.81254 26.125 7.76046 26.0625C7.36462 25.5625 7.03129 25.0521 6.76046 24.5104C6.51046 24.0312 6.31254 23.5208 6.15629 22.9583C6.09379 22.7604 6.04171 22.5729 6.00004 22.3646C5.98962 22.3542 5.97921 22.3333 5.97921 22.3125C5.87504 21.8854 5.78129 21.4375 5.72921 20.9896C5.66671 20.6458 5.63546 20.3021 5.63546 19.9479C5.61462 19.8125 5.61462 19.6667 5.61462 19.5312L7.60421 16.4583L9.55212 13.4583L10.4375 12.0938L11.2396 10.8646L11.5105 10.4375V9.36458C11.5313 9.125 11.5417 8.875 11.5313 8.64583C11.5209 7.91667 11.375 7.20833 11.1355 6.53125C10.9063 5.8125 10.5834 5.13542 10.25 4.51042C9.85421 3.79167 9.43754 3.14583 9.09379 2.5625C8.58337 1.70833 8.22921 1.01042 8.32296 0.520834C9.07296 0.34375 9.86462 0.25 10.6667 0.25H27.3334C31.6875 0.25 35.4375 2.95833 36.9896 6.77083C37.1563 7.17708 37.3021 7.60417 37.4063 8.04167Z" fill="#304FFE"/>
<path d="M37.75 10.6667V10.9479L36.3125 11.7812L35.3958 12.3125L34.3854 12.8958L32.3645 14.0729L30.3854 15.2188L28.3645 16.3854L27.5625 16.8542C27.5625 17.3542 27.4375 17.8125 27.2083 18.2292C26.8854 18.8333 26.3437 19.3333 25.6562 19.7604C24.9583 20.1875 24.1041 20.5312 23.1458 20.7812C23.1458 20.7812 23.1458 20.7708 23.1354 20.7812C19.427 21.7396 14.3645 21.3021 11.9062 19.4688C11.2187 18.9583 10.7395 18.3333 10.5312 17.6146C10.4687 17.375 10.4375 17.1146 10.4375 16.8542V9.36458C10.4479 9.20833 10.3437 9.05208 10.1562 8.89583C9.59371 8.44792 8.27079 8.02083 6.79163 7.59375C5.63538 7.27083 4.39579 6.94792 3.35413 6.63542C2.53121 6.38542 1.83329 6.13542 1.41663 5.89583C1.60413 5.53125 1.82288 5.16667 2.05204 4.82292C3.51038 2.6875 5.73954 1.11458 8.32288 0.520834C9.07288 0.34375 9.86454 0.25 10.6666 0.25H21.9166C27.5104 1.22917 32.6666 3.51042 36.9895 6.77083C37.1562 7.17708 37.302 7.60417 37.4062 8.04167C37.5937 8.72917 37.7083 9.4375 37.7395 10.1771C37.75 10.3333 37.75 10.5 37.75 10.6667Z" fill="#4928F4"/>
<path d="M37.75 10.6667V15.2604L37.5209 15.9688L36.7396 18.3958L35.9271 20.8958L35.5 22.2292L35.1042 23.4688L34.7188 24.6458L34.3438 25.8125L34.1459 26.4271L33.8855 27.2396C33.8855 28.0312 33.8646 28.7292 33.8125 29.3229C33.8021 29.3854 33.7917 29.4479 33.7917 29.5104C33.7292 30.0625 33.6459 30.5312 33.5105 30.9271C33.5 30.9896 33.4792 31.0521 33.4584 31.1042C33.1875 31.8542 32.7813 32.3333 32.1771 32.6458C32.0313 32.7292 31.8646 32.7917 31.6875 32.8542C31.1355 33.0417 30.4375 33.1354 29.5834 33.1875C28.9584 33.2292 28.2396 33.2396 27.4271 33.2396H26.7084L25.4688 33.1875L25.25 33.1771L22.9896 33.0833L20.698 32.9896L13.1459 32.6771L11.1875 32.5937H10.9167C10.1042 32.5833 9.40629 32.5312 8.80212 32.4479C7.92712 32.3125 7.25004 32.0833 6.73962 31.7396C6.01046 31.2708 5.58337 30.5833 5.33337 29.625C5.27087 29.3958 5.21879 29.1562 5.18754 28.8958C5.08337 28.2917 5.03129 27.5938 5.00004 26.8125C5.00004 26.6562 5.00004 26.5 4.98962 26.3333C4.97921 26.3229 4.98962 26.3229 4.98962 26.3229V25.7188C4.97921 25.4167 4.97921 25.1042 4.97921 24.7812L5.03129 23.1042L5.06254 21.9062L5.10421 20.5104V20.3125L5.17712 17.75L5.25004 15.1875L5.32296 12.7813L5.38546 10.4167L5.40629 9.79167C5.40629 9.46875 4.31254 9.28125 3.09379 9.125C2.12504 9 1.06254 8.88542 0.427124 8.73958C0.479207 8.5 0.531291 8.26042 0.593791 8.03125C0.781291 7.28125 1.06254 6.57292 1.41671 5.89583C1.60421 5.53125 1.82296 5.16667 2.05212 4.82292C4.30212 3.83333 6.64587 3.0625 9.09379 2.5625C11.2396 2.11458 13.4792 1.875 15.7917 1.875C23.4584 1.875 30.5417 4.46875 36.1459 8.84375C36.6875 9.26042 37.2188 9.70833 37.7396 10.1771C37.75 10.3333 37.75 10.5 37.75 10.6667Z" fill="#6200EA"/>
<path d="M37.75 13.1354V17.8646L37.1771 18.9687L36.0833 21.1042L35.5 22.2292L34.9688 23.2604L34.7396 23.7083C34.7396 24.0312 34.7396 24.3437 34.7188 24.6458C34.7188 25.0937 34.6979 25.5208 34.6667 25.9167C34.625 26.3854 34.5625 26.8125 34.5 27.2083C34.3438 28.0312 34.125 28.7396 33.8125 29.3229C33.7708 29.3958 33.7292 29.4687 33.6875 29.5312C33.5729 29.7187 33.4375 29.8958 33.2917 30.0625C33.1042 30.2917 32.8958 30.4896 32.6562 30.6562C32.3021 30.9271 31.8854 31.1458 31.4062 31.3125C30.8125 31.5312 30.125 31.6771 29.3125 31.7604C28.7812 31.8125 28.1979 31.8437 27.5625 31.8437L27.125 31.8646L24.9583 31.9896H24.9479L22.6458 32.125L20.3021 32.2604L17.0729 32.4479L13.1458 32.6771L12.5729 32.7083C12.0417 32.7083 11.5417 32.6771 11.0625 32.6146C11.0104 32.6042 10.9687 32.5937 10.9167 32.5937C10.2083 32.4792 9.5625 32.2917 8.97917 32.0312C8.27083 31.7187 7.65625 31.3021 7.13542 30.8021C6.67708 30.3542 6.28125 29.8437 5.95833 29.2708C5.88542 29.1354 5.8125 29.0104 5.75 28.8646C5.4375 28.25 5.1875 27.5625 5 26.8125C4.96875 26.6875 4.9375 26.5521 4.91667 26.4167C4.85417 26.1771 4.80208 25.9271 4.77083 25.6667C4.65625 25 4.59375 24.2917 4.5625 23.5521V23.5417C4.55208 23.2396 4.54167 22.9479 4.54167 22.6354L4.03125 21.4167L3.95833 21.2292L3.89583 21.0729L3.11458 19.2083L2.98958 18.9062L2.23958 17.1042L1.40625 15.0937C1.40625 15.0937 1.40625 15.0937 1.39583 15.0937L0.552083 13.0625L0.25 12.3229V10.6667C0.25 10.0104 0.3125 9.36457 0.427083 8.73957C0.479167 8.49999 0.53125 8.26041 0.59375 8.03124C1.47917 7.52082 2.40625 7.05207 3.35417 6.63541C5.52083 5.66666 7.84375 4.94791 10.25 4.51041C12.0417 4.18749 13.9062 4.01041 15.7917 4.01041C23.4062 4.01041 30.3125 6.77082 35.7083 11.2708C35.9167 11.4375 36.1146 11.6042 36.3125 11.7812C36.8021 12.2083 37.2812 12.6562 37.75 13.1354Z" fill="#673AB7"/>
<path d="M37.75 16.2396V21.5937L37.1562 22.8333L36.0312 25.1771L36.0208 25.2083C36.0208 25.6562 36 26.0625 35.9688 26.4271C35.8646 27.625 35.5729 28.3854 35.0938 28.8542C34.75 29.2083 34.3229 29.4062 33.7917 29.5104C33.7604 29.5208 33.7187 29.5208 33.6875 29.5312C33.5208 29.5625 33.3438 29.5833 33.1562 29.5833C32.5104 29.6458 31.75 29.6042 30.875 29.5417C30.7812 29.5417 30.6771 29.5312 30.5729 29.5208C29.9375 29.4792 29.2604 29.4375 28.5104 29.4062C28.1042 29.3958 27.6771 29.3854 27.2396 29.3854H27.2187L26.1667 29.4687H26.1562L23.7917 29.6354L21.0938 29.8437L20.6979 29.875L17.5417 30.1042L15.9062 30.2292L14.2917 30.3437C14.0104 30.3437 13.7396 30.3438 13.4688 30.3333C13.4688 30.3333 13.4583 30.3229 13.4583 30.3333C12.2812 30.3125 11.2292 30.2396 10.2917 30.0625C9.42708 29.9167 8.66667 29.6875 8.02083 29.3438C7.35417 29.0208 6.80208 28.5625 6.35417 27.9792C5.92708 27.4062 5.61458 26.6875 5.41667 25.8229C5.41667 25.8125 5.41667 25.8125 5.41667 25.8125C5.27083 25.1146 5.1875 24.3021 5.1875 23.3854L5.03125 23.1042L4.10417 21.4479L3.96875 21.2187L3.89583 21.0729L2.92708 19.3542L2.44792 18.4896L1.84375 17.4167L0.802084 15.5521L0.25 14.5729V10.7396C1.16667 10.1354 2.11458 9.60417 3.09375 9.125C4.28125 8.52083 5.51042 8.01042 6.79167 7.59375C8.1875 7.13542 9.64583 6.77083 11.1354 6.53125C12.6458 6.28125 14.1979 6.15625 15.7917 6.15625C22.875 6.15625 29.375 8.6875 34.3854 12.8958C34.6146 13.0729 34.8333 13.2708 35.0521 13.4583C35.9271 14.2396 36.7604 15.0833 37.5208 15.9688C37.6042 16.0625 37.6875 16.1458 37.75 16.2396Z" fill="#8E24AA"/>
<path d="M37.75 19.7396V27.2708C37.5 27.125 37.1562 26.9479 36.7292 26.7604C36.5 26.6458 36.2396 26.5312 35.9688 26.4271C35.5729 26.25 35.1458 26.0833 34.6667 25.9167C34.5625 25.875 34.4583 25.8437 34.3438 25.8125C34.1562 25.7396 33.9583 25.6771 33.7604 25.6146C33.1458 25.4271 32.4688 25.25 31.7604 25.0937C31.4896 25.0417 31.2083 24.9896 30.9271 24.9479C30.0208 24.7917 29.0521 24.6979 28.0417 24.6875C27.9583 24.6771 27.8646 24.6771 27.7812 24.6771L25.1042 24.6979L21.4583 24.7187H21.4479L13.6458 24.7812C11.1667 24.7812 9.64583 25.375 8.72917 25.6146C8.72917 25.6146 8.71875 25.6146 8.71875 25.625C7.75 25.875 7.44792 25.7187 7.36458 24.0208C7.34375 23.5521 7.33333 22.9479 7.33333 22.2083L6.75 21.7604L5.72917 20.9896L5.10417 20.5104L4.97917 20.4167L3.25 19.1042L2.98958 18.9062L2.44792 18.4896L1.44792 17.7396L0.25 16.8229V13.2812C0.354167 13.1979 0.447917 13.125 0.552083 13.0625C2.0625 12.0208 3.67708 11.1354 5.38542 10.4167C6.90625 9.77082 8.51042 9.26041 10.1562 8.89582C10.6042 8.80207 11.0625 8.70832 11.5312 8.64582C12.9167 8.40624 14.3438 8.29166 15.7917 8.29166C22.0521 8.29166 27.8021 10.4687 32.3646 14.0729C33.0521 14.6146 33.7188 15.1875 34.3438 15.8021C35.1979 16.6146 36 17.4792 36.7396 18.3958C36.8854 18.5833 37.0312 18.7708 37.1771 18.9687C37.375 19.2187 37.5625 19.4792 37.75 19.7396Z" fill="#C2185B"/>
<path d="M37.75 23.9167V27.3333C37.75 28.0104 37.6875 28.6771 37.5625 29.3229C37.375 30.2812 37.0521 31.1979 36.6146 32.0521C36.3854 32.1042 36.125 32.1042 35.8333 32.0625C35.1771 31.9479 34.4062 31.6042 33.5729 31.1562C33.5312 31.1458 33.4896 31.125 33.4583 31.1042C33.1979 30.9688 32.9271 30.8229 32.6562 30.6562C32.1042 30.3542 31.5208 30.0208 30.9375 29.7083C30.8125 29.6458 30.6875 29.5833 30.5729 29.5208C29.9062 29.1771 29.2188 28.8646 28.5312 28.625C28.5312 28.625 28.5312 28.625 28.5208 28.625C28.375 28.5729 28.2188 28.5208 28.0625 28.4792C27.4688 28.3125 26.8646 28.2083 26.2812 28.2083L25.1354 27.875L20.0625 26.4062C20.0625 26.4062 20.0625 26.4062 20.0521 26.4062L16.9375 25.5H16.9271L15.5729 25.1042C11.6562 25.1042 9.25 26.7708 8.08333 26.1354C7.625 25.8958 7.35417 25.2917 7.26042 24.1042C7.22917 23.7708 7.21875 23.3958 7.21875 22.9583L6 22.3646L5.94792 22.3437H5.9375L5.0625 21.9063L4.10417 21.4479L4.03125 21.4167L3.85417 21.3229L1.8125 20.3333L0.25 19.5729V16C0.427083 15.8438 0.614584 15.6979 0.802084 15.5521C1 15.3958 1.19792 15.25 1.39583 15.0938C1.40625 15.0938 1.40625 15.0938 1.40625 15.0938C2.63542 14.2083 3.9375 13.4271 5.32292 12.7813C6.9375 12.0104 8.65625 11.4167 10.4375 11.0313C10.6979 10.9688 10.9687 10.9063 11.2396 10.8646C12.7187 10.5833 14.2396 10.4375 15.7917 10.4375C21.2812 10.4375 26.3229 12.2188 30.3854 15.2188C31.5625 16.0938 32.6562 17.0625 33.6562 18.1146C34.4792 18.9792 35.2396 19.9167 35.9271 20.8958C35.9792 20.9688 36.0312 21.0417 36.0833 21.1042C36.4688 21.6667 36.8229 22.2396 37.1562 22.8333C37.375 23.1875 37.5625 23.5521 37.75 23.9167Z" fill="#D81B60"/>
<path d="M37.5625 29.3229C37.375 30.2812 37.0521 31.1979 36.6146 32.0521C36.4167 32.4375 36.1979 32.8021 35.9583 33.1562C35.8125 33.375 35.6562 33.5833 35.5 33.7812C35.125 33.6354 34.5729 33.4271 33.8958 33.1979C33.8958 33.1979 33.8958 33.1979 33.8958 33.1875C33.3854 33.0104 32.8021 32.8229 32.1771 32.6458C32 32.5937 31.8229 32.5417 31.6354 32.4896C30.8958 32.2917 30.125 32.1146 29.375 32.0104C28.75 31.9062 28.1354 31.8437 27.5625 31.8437L27.0833 31.7083H27.0729L24.5521 30.9792L23 30.5312L21.2708 30.0312H21.2604L20.6979 29.875L13.8958 27.9167L11.9375 27.3542L10.4792 27.0104L8.10417 26.4479L7.8125 26.375C7.8125 26.375 7.8125 26.375 7.80208 26.375L5.41667 25.8229C5.41667 25.8125 5.41667 25.8125 5.41667 25.8125L4.98958 25.7187L4.77083 25.6667L3.03125 25.2604L2.83333 25.2083L1.35417 23.9896L0.25 23.0625V18.8125C0.635417 18.4375 1.03125 18.0833 1.44792 17.7396C1.57292 17.625 1.70833 17.5208 1.84375 17.4167C1.96875 17.3125 2.10417 17.2083 2.23958 17.1042C3.1875 16.3854 4.1875 15.7396 5.25 15.1875C6.60417 14.4583 8.04167 13.875 9.55208 13.4583C9.84375 13.3646 10.1354 13.2812 10.4375 13.2187C12.1458 12.7917 13.9375 12.5729 15.7917 12.5729C20.4479 12.5729 24.7812 13.9792 28.3646 16.3854C30.1458 17.5833 31.75 19.0208 33.1042 20.6562C33.7917 21.4792 34.4167 22.3437 34.9688 23.2604C35.0208 23.3333 35.0625 23.3958 35.1042 23.4687C35.4375 24.0208 35.75 24.5937 36.0312 25.1771C36.2917 25.6979 36.5208 26.2187 36.7292 26.7604C37.0625 27.5937 37.3333 28.4479 37.5625 29.3229Z" fill="#F50057"/>
<path d="M35.9583 33.1562C35.8125 33.375 35.6562 33.5833 35.5 33.7812C35.0417 34.3542 34.5417 34.875 33.9792 35.3333C33.4896 35.7396 32.9688 36.1042 32.4167 36.4167C32.2083 36.3646 32 36.3021 31.7812 36.2187C31.0938 35.9792 30.375 35.5833 29.7083 35.1667C28.7083 34.5312 27.8437 33.8438 27.4583 33.5312C27.3125 33.4062 27.2396 33.3438 27.2396 33.3438L25.4687 33.1875L25.25 33.1667L22.9583 32.9688L20.5833 32.7604L17.0729 32.4479L11.5104 31.9583L11.4896 31.9479L9.53125 31L7.55208 30.0417L5.95833 29.2708L5.61458 29.1042L5.1875 28.8958L3.70833 28.1771L1.73958 27.2292L1.125 26.9271L0.25 26.6563V22C0.739583 21.4167 1.26042 20.8646 1.8125 20.3333C2.16667 20 2.54167 19.6667 2.92708 19.3542C2.98958 19.3021 3.05208 19.25 3.11458 19.2083C3.15625 19.1563 3.20833 19.125 3.25 19.1042C3.86458 18.6042 4.51042 18.1562 5.17708 17.75C5.94792 17.2604 6.76042 16.8229 7.60417 16.4583C8.51042 16.0521 9.45833 15.7083 10.4375 15.4479C12.1354 14.9688 13.9375 14.7188 15.7917 14.7188C20.0417 14.7188 23.9687 16.0104 27.2083 18.2292C29.2812 19.6458 31.0729 21.4375 32.4896 23.5104C32.9583 24.1771 33.375 24.8854 33.7604 25.6146C33.8958 25.8854 34.0312 26.1562 34.1458 26.4271C34.2708 26.6875 34.3854 26.9479 34.5 27.2083C34.7188 27.75 34.9167 28.2917 35.0938 28.8542C35.4271 29.8958 35.6771 30.9583 35.8333 32.0625C35.8854 32.4271 35.9271 32.7917 35.9583 33.1562Z" fill="#FF1744"/>
<path d="M33.9896 35.0625C33.9896 35.1458 33.9896 35.2396 33.9792 35.3333C33.4896 35.7396 32.9688 36.1042 32.4167 36.4167C32.1875 36.5417 31.9583 36.6667 31.7187 36.7708C31.4792 36.8854 31.2396 36.9896 30.9896 37.0833C30.6354 36.8958 30.1562 36.6667 29.6458 36.4479C28.9271 36.125 28.1458 35.8333 27.5417 35.7396C27.3958 35.7083 27.2604 35.6979 27.1354 35.6979L25.4271 35.4792H25.4062L23.2812 35.1979L21.1354 34.9167L20.1354 34.7917L12.2604 33.7708C11.75 33.7708 11.2083 33.7396 10.6458 33.6667C9.95833 33.6042 9.23958 33.5 8.52083 33.3542C7.8125 33.2292 7.09375 33.0625 6.40625 32.8854C5.6875 32.7187 4.97917 32.5208 4.32292 32.3333C3.5625 32.1042 2.85417 31.8854 2.26042 31.6875C1.77083 31.5312 1.35417 31.3854 1.03125 31.2708C0.84375 30.8229 0.6875 30.3542 0.572917 29.875C0.354167 29.0625 0.25 28.2083 0.25 27.3333V25.5937C0.583333 25.0417 0.947917 24.5 1.35417 23.9896C2.09375 23.0104 2.9375 22.1146 3.85417 21.3229C3.88542 21.2812 3.92708 21.25 3.95833 21.2292L3.96875 21.2187C4.29167 20.9271 4.625 20.6667 4.97917 20.4167C5.02083 20.375 5.0625 20.3437 5.10417 20.3125C5.27083 20.1875 5.44792 20.0625 5.63542 19.9479C7.125 18.9375 8.77083 18.1458 10.5312 17.6146C12.1979 17.1146 13.9583 16.8542 15.7917 16.8542C19.4271 16.8542 22.8229 17.9271 25.6562 19.7604C27.75 21.1042 29.5521 22.875 30.9271 24.9479C31.0938 25.1875 31.25 25.4271 31.4062 25.6771C32.125 26.8958 32.7188 28.2083 33.1562 29.5833C33.2083 29.7396 33.25 29.8958 33.2917 30.0625C33.375 30.3437 33.4479 30.6354 33.5104 30.9271C33.5312 31 33.5521 31.0729 33.5729 31.1562C33.7188 31.8125 33.8229 32.5 33.8958 33.1875C33.8958 33.1979 33.8958 33.1979 33.8958 33.1979C33.9583 33.8125 33.9896 34.4375 33.9896 35.0625Z" fill="#FF5722"/>
<path d="M31.8437 35.0625C31.8437 35.4271 31.8229 35.8229 31.7812 36.2187C31.7604 36.4062 31.7395 36.5938 31.7187 36.7708C31.4791 36.8854 31.2395 36.9896 30.9895 37.0833C30.5208 37.2604 30.0416 37.4062 29.552 37.5104C29.2187 37.5833 28.875 37.6458 28.5312 37.6771H28.5208C28.1979 37.4792 27.8229 37.2396 27.4375 36.9688C26.7395 36.4792 26.0104 35.9271 25.427 35.4792C25.4166 35.4688 25.4166 35.4687 25.4062 35.4583C24.7916 34.9896 24.3541 34.6354 24.3541 34.6354L23.25 34.6771L21.125 34.75L20.1354 34.7917L16.1562 34.9375L12.7916 35.0625C12.5729 35.0729 12.3125 35.0729 11.9895 35.0625H11.9791C11.5416 35.0521 11.0208 35.0208 10.4479 34.9688C9.78121 34.9167 9.05204 34.8542 8.31246 34.7813C7.59371 34.6979 6.86454 34.6146 6.16663 34.5312C5.39579 34.4479 4.66663 34.3542 4.04163 34.2708C3.55204 34.2083 3.12496 34.1562 2.78121 34.1146C2.48954 33.7812 2.22913 33.4375 1.97913 33.0625C1.60413 32.5 1.28121 31.9062 1.03121 31.2708C0.843709 30.8229 0.687459 30.3542 0.572876 29.875C0.874959 28.9479 1.27079 28.0729 1.73954 27.2292C2.11454 26.5417 2.55204 25.8854 3.03121 25.2604C3.49996 24.6458 4.01038 24.0729 4.56246 23.5521V23.5417C4.71871 23.3854 4.87496 23.2396 5.03121 23.1042C5.32288 22.8333 5.62496 22.5833 5.93746 22.3437H5.94788C5.95829 22.3229 5.96871 22.3229 5.97913 22.3125C6.22913 22.1146 6.48954 21.9375 6.74996 21.7604C8.29163 20.7083 10.0312 19.9271 11.9062 19.4688C13.1458 19.1667 14.4479 19 15.7916 19C18.4375 19 20.9375 19.6354 23.1354 20.7812H23.1458C25.0312 21.75 26.6979 23.0833 28.0416 24.6875C28.7812 25.5417 29.4166 26.4792 29.9375 27.4688C30.302 28.1354 30.6145 28.8333 30.875 29.5417C30.8958 29.6042 30.9166 29.6562 30.9375 29.7083C31.1145 30.2292 31.2708 30.7708 31.4062 31.3125C31.5 31.6979 31.5729 32.0938 31.6354 32.4896C31.6562 32.6146 31.677 32.7292 31.6875 32.8542C31.7916 33.5729 31.8437 34.3125 31.8437 35.0625Z" fill="#FF6F00"/>
<path d="M29.7083 35.0625V35.1667C29.7083 35.5208 29.677 35.9688 29.6458 36.4479C29.6145 36.8021 29.5833 37.1667 29.552 37.5104C29.2187 37.5833 28.875 37.6458 28.5312 37.6771H28.5208C28.125 37.7292 27.7395 37.75 27.3333 37.75H25.5104L25.1145 37.6354L23.0625 37.0104L20.9791 36.3854L16.1562 34.9375L14.0729 34.3125C14.0729 34.3125 13.2083 34.6563 11.9895 35.0625H11.9791C11.5104 35.2188 11 35.3854 10.4583 35.5521C9.78121 35.75 9.06246 35.9479 8.35413 36.1042C7.62496 36.2708 6.90621 36.3958 6.26038 36.4479C6.06246 36.4688 5.86454 36.4792 5.68746 36.4792C5.10413 36.1563 4.54163 35.7708 4.03121 35.3438C3.58329 34.9688 3.16663 34.5625 2.78121 34.1146C2.48954 33.7813 2.22913 33.4375 1.97913 33.0625C2.05204 32.5938 2.13538 32.1354 2.26038 31.6875C2.57288 30.4479 3.06246 29.2604 3.70829 28.1771C4.06246 27.5625 4.45829 26.9688 4.91663 26.4167C4.92704 26.3854 4.95829 26.3542 4.98954 26.3333C4.97913 26.3229 4.98954 26.3229 4.98954 26.3229C5.12496 26.1458 5.27079 25.9792 5.41663 25.8229C5.41663 25.8125 5.41663 25.8125 5.41663 25.8125C5.84371 25.3542 6.28121 24.9167 6.76038 24.5104C6.92704 24.375 7.08329 24.2396 7.26038 24.1042C7.29163 24.0729 7.32288 24.0521 7.36454 24.0208C9.70829 22.2292 12.6354 21.1458 15.7916 21.1458C19.375 21.1458 22.6354 22.4896 25.1041 24.6979C26.2916 25.7708 27.302 27.0521 28.0625 28.4792C28.125 28.5833 28.1875 28.6979 28.2395 28.8125C28.3333 29 28.427 29.1979 28.5104 29.4063C28.8541 30.1563 29.125 30.9479 29.3125 31.7604C29.3333 31.8438 29.3541 31.9271 29.375 32.0104C29.4583 32.3958 29.5312 32.7917 29.5833 33.1875C29.6666 33.8021 29.7083 34.4271 29.7083 35.0625Z" fill="#FF9800"/>
<path d="M27.5625 35.0625C27.5625 35.2708 27.552 35.5 27.5416 35.7396C27.5208 36.125 27.4895 36.5417 27.4375 36.9687C27.4166 37.2292 27.375 37.4896 27.3333 37.75H21.625L20.5208 37.5729L16.2083 36.8854L15.5937 36.7917L14.1875 36.5625C13.5729 36.5625 12.2395 36.8333 10.8333 37.0937C10.0937 37.2292 9.34371 37.375 8.66663 37.4687C8.58329 37.4792 8.49996 37.4896 8.42704 37.5H8.41663C7.68746 37.3437 6.97913 37.1042 6.31246 36.7917C6.10413 36.6979 5.89579 36.5937 5.68746 36.4792C5.10413 36.1562 4.54163 35.7708 4.03121 35.3437C4.02079 35.2187 4.01038 35.1146 4.01038 35.0625C4.01038 34.7917 4.02079 34.5312 4.04163 34.2708C4.08329 33.6042 4.17704 32.9583 4.32288 32.3333C4.55204 31.3854 4.88538 30.4688 5.33329 29.625C5.41663 29.4479 5.51038 29.2708 5.61454 29.1042C5.65621 29.0208 5.70829 28.9479 5.74996 28.8646C5.93746 28.5625 6.14579 28.2708 6.35413 27.9792C6.79163 27.4062 7.28121 26.8646 7.80204 26.375C7.81246 26.375 7.81246 26.375 7.81246 26.375C7.85413 26.3333 7.89579 26.2917 7.93746 26.2604C7.98954 26.2187 8.03121 26.1667 8.08329 26.1354C8.29163 25.9479 8.49996 25.7812 8.71871 25.625C8.71871 25.6146 8.72913 25.6146 8.72913 25.6146C10.6979 24.1458 13.1354 23.2812 15.7916 23.2812C17.8541 23.2812 19.7708 23.8021 21.4479 24.7187H21.4583C22.8958 25.5104 24.1458 26.5833 25.1354 27.875C25.5208 28.375 25.8645 28.9062 26.1562 29.4687H26.1666C26.2187 29.5729 26.2708 29.6771 26.3229 29.7812C26.6354 30.3958 26.8854 31.0417 27.0729 31.7083H27.0833C27.0937 31.7604 27.1145 31.8125 27.125 31.8646C27.25 32.3125 27.3541 32.7708 27.427 33.2396C27.4375 33.3333 27.4479 33.4375 27.4583 33.5312C27.5312 34.0312 27.5625 34.5417 27.5625 35.0625Z" fill="#FFC107"/>
<path d="M25.4271 34.9479C25.4271 35.1146 25.4271 35.2917 25.4063 35.4583V35.4688C25.4063 35.4792 25.4063 35.4792 25.4063 35.4792C25.3854 36.2292 25.2813 36.9688 25.1146 37.6354C25.1146 37.6771 25.1042 37.7083 25.0833 37.75H20.2188L16.2083 36.8854L15.6771 36.7708L15.5938 36.7917L11.1458 37.7083L10.9479 37.75H10.6667C10 37.75 9.34375 37.6875 8.70833 37.5625C8.61458 37.5417 8.52083 37.5208 8.42708 37.5H8.41667C7.6875 37.3438 6.97917 37.1042 6.3125 36.7917C6.29167 36.6771 6.27083 36.5625 6.26042 36.4479C6.1875 36 6.15625 35.5313 6.15625 35.0625C6.15625 34.8854 6.15625 34.7083 6.16667 34.5313C6.19792 33.9688 6.28125 33.4167 6.40625 32.8854C6.48958 32.4896 6.60417 32.1042 6.73958 31.7396C6.85417 31.4167 6.98958 31.1042 7.13542 30.8021C7.26042 30.5417 7.40625 30.2917 7.55208 30.0417C7.69792 29.8021 7.85417 29.5729 8.02083 29.3438C8.4375 28.7708 8.92708 28.2396 9.46875 27.7708C9.78125 27.5 10.125 27.2396 10.4792 27.0104C12 26.0104 13.8229 25.4271 15.7917 25.4271C16.1771 25.4271 16.5521 25.4479 16.9167 25.5H16.9375C18.0521 25.625 19.0938 25.9375 20.0521 26.4063C20.0625 26.4063 20.0625 26.4063 20.0625 26.4063C21.5729 27.1458 22.8542 28.2604 23.7917 29.6354C23.9479 29.8646 24.1042 30.1146 24.2396 30.3646C24.3542 30.5625 24.4583 30.7708 24.5521 30.9792C24.6979 31.3021 24.8333 31.6458 24.9479 31.9896H24.9583C25.0729 32.375 25.1771 32.7604 25.25 33.1667V33.1771C25.3646 33.75 25.4271 34.3438 25.4271 34.9479Z" fill="#FFD54F"/>
<path d="M23.2812 35.1667V35.1979C23.2812 35.8125 23.2083 36.4167 23.0625 37.0104C23.0104 37.2604 22.9375 37.5104 22.8437 37.75H18.177L15.7916 37.0937L13.4062 37.75H10.6666C9.99996 37.75 9.34371 37.6875 8.70829 37.5625C8.68746 37.5312 8.67704 37.5 8.66663 37.4687C8.52079 37.0208 8.40621 36.5729 8.35413 36.1042C8.31246 35.8021 8.29163 35.4896 8.29163 35.1667C8.29163 35.0417 8.29163 34.9062 8.31246 34.7812C8.32288 34.2917 8.39579 33.8125 8.52079 33.3542C8.58329 33.0417 8.67704 32.7396 8.80204 32.4479C8.84371 32.3021 8.90621 32.1667 8.97913 32.0312C9.13538 31.6771 9.32288 31.3333 9.53121 31C9.76038 30.6667 10.0104 30.3542 10.2916 30.0625C10.625 29.6875 11 29.3437 11.427 29.0625C12.1562 28.5312 12.9895 28.1354 13.8958 27.9167C14.5 27.75 15.1354 27.6667 15.7916 27.6667C17.875 27.6667 19.7395 28.5 21.0937 29.8437C21.1458 29.8958 21.2083 29.9583 21.2604 30.0312H21.2708C21.4166 30.1875 21.552 30.3437 21.6875 30.5208C22.0729 31.0104 22.3958 31.5417 22.6458 32.125C22.7708 32.3958 22.875 32.6771 22.9583 32.9687C22.9687 33.0104 22.9791 33.0417 22.9895 33.0833C23.1354 33.5937 23.2291 34.125 23.25 34.6771C23.2708 34.8333 23.2812 35 23.2812 35.1667Z" fill="#FFE082"/>
<path d="M21.1458 35.1667C21.1458 35.5938 21.0937 36 20.9792 36.3854C20.875 36.8021 20.7187 37.1979 20.5208 37.5729C20.4896 37.6354 20.4167 37.75 20.4167 37.75H11.1667C11.1562 37.7396 11.1458 37.7187 11.1458 37.7083C11.0208 37.5104 10.9167 37.3125 10.8333 37.0937C10.625 36.6146 10.5 36.0937 10.4583 35.5521C10.4375 35.4271 10.4375 35.2917 10.4375 35.1667C10.4375 35.1042 10.4375 35.0313 10.4479 34.9688C10.4583 34.5104 10.5208 34.0729 10.6458 33.6667C10.75 33.2917 10.8854 32.9479 11.0625 32.6146C11.0625 32.6146 11.0729 32.6042 11.0729 32.5937C11.1979 32.375 11.3333 32.1562 11.4896 31.9479C12 31.2604 12.6771 30.6979 13.4583 30.3333C13.4688 30.3333 13.4688 30.3333 13.4688 30.3333C13.7188 30.2083 13.9792 30.1042 14.25 30.0312C14.25 30.0312 14.25 30.0312 14.2604 30.0312C14.7396 29.8854 15.2604 29.8125 15.7917 29.8125C16.4062 29.8125 17 29.9062 17.5417 30.1042C17.7396 30.1562 17.9271 30.2396 18.1146 30.3333C18.1146 30.3333 18.1146 30.3333 18.125 30.3333C19.0208 30.7604 19.7812 31.4271 20.3021 32.2604C20.4062 32.4167 20.5 32.5833 20.5833 32.7604C20.625 32.8333 20.6667 32.9167 20.6979 32.9896C20.9375 33.5312 21.0833 34.125 21.125 34.75C21.1354 34.8021 21.1354 34.8542 21.1354 34.9167C21.1458 35 21.1458 35.0833 21.1458 35.1667Z" fill="#FFECB3"/>
<path d="M25.25 5.45834H12.75C8.68754 5.45834 5.45837 8.68751 5.45837 12.75V25.25C5.45837 29.3125 8.68754 32.5417 12.75 32.5417H25.25C29.3125 32.5417 32.5417 29.3125 32.5417 25.25V12.75C32.5417 8.68751 29.3125 5.45834 25.25 5.45834Z" stroke="white" stroke-width="6" stroke-miterlimit="10" stroke-linecap="round" stroke-linejoin="round"/>
<path d="M26.2917 11.7083C26.867 11.7083 27.3333 11.242 27.3333 10.6667C27.3333 10.0914 26.867 9.625 26.2917 9.625C25.7164 9.625 25.25 10.0914 25.25 10.6667C25.25 11.242 25.7164 11.7083 26.2917 11.7083Z" fill="white"/>
<path d="M19 25.25C22.4518 25.25 25.25 22.4518 25.25 19C25.25 15.5482 22.4518 12.75 19 12.75C15.5482 12.75 12.75 15.5482 12.75 19C12.75 22.4518 15.5482 25.25 19 25.25Z" stroke="white" stroke-width="6" stroke-miterlimit="10" stroke-linecap="round" stroke-linejoin="round"/>
</svg>
