<svg width="50" height="50" viewBox="0 0 50 50" fill="none" xmlns="http://www.w3.org/2000/svg">
<path d="M21.1212 41H7.26843V23.8225C7.26843 19.2049 8.19195 15.6955 10.039 13.2944C12.0707 10.8009 15.4878 9.36941 20.2901 9V17.1732C18.6277 17.1732 17.2425 17.8658 16.1342 19.2511C15.5801 19.9899 15.3031 21.4214 15.3031 23.5455V26.1775H21.1212V41ZM42.7316 41H28.8788V23.8225C28.8788 19.2049 29.71 15.8341 31.3723 13.71C33.5888 10.9394 37.0982 9.36941 41.9005 9V17.1732C39.0376 17.1732 37.4214 18.6046 37.052 21.4675C36.9596 21.8369 36.9135 22.5296 36.9135 23.5455V26.1775H42.7316V41Z" fill="#014760"/>
</svg>
