<svg width="38" height="38" viewBox="0 0 38 38" fill="none" xmlns="http://www.w3.org/2000/svg">
<path fill-rule="evenodd" clip-rule="evenodd" d="M33.5833 37.75H4.41667C2.11562 37.75 0.25 35.8844 0.25 33.5833V4.41667C0.25 2.11562 2.11562 0.25 4.41667 0.25H33.5833C35.8844 0.25 37.75 2.11562 37.75 4.41667V33.5833C37.75 35.8844 35.8844 37.75 33.5833 37.75Z" fill="#212121"/>
<path d="M29.6843 29.4167H22.9791L8.40515 8.58334H15.1104L29.6843 29.4167ZM23.7781 27.65H26.4479L14.3114 10.35H11.6416L23.7781 27.65Z" fill="white"/>
<path d="M10.5271 29.4167L18.0302 20.725L17.0489 19.424L8.39893 29.4167H10.5271Z" fill="white"/>
<path d="M19.4688 16.6261L20.4115 17.9688L28.5167 8.58334H26.4333L19.4688 16.6261Z" fill="white"/>
</svg>
