<svg width="42" height="32" viewBox="0 0 42 32" fill="none" xmlns="http://www.w3.org/2000/svg">
<path d="M41 26.3125C40.5833 28.5 38.8125 30.1667 36.625 30.4792C33.1875 31 27.4583 31.625 21 31.625C14.6458 31.625 8.91663 31 5.37496 30.4792C3.18746 30.1667 1.41663 28.5 0.999959 26.3125C0.583293 23.9167 0.166626 20.375 0.166626 16C0.166626 11.625 0.583293 8.08333 0.999959 5.6875C1.41663 3.5 3.18746 1.83333 5.37496 1.52083C8.81246 1 14.5416 0.375 21 0.375C27.4583 0.375 33.0833 1 36.625 1.52083C38.8125 1.83333 40.5833 3.5 41 5.6875C41.4166 8.08333 41.9375 11.625 41.9375 16C41.8333 20.375 41.4166 23.9167 41 26.3125Z" fill="#FF3D00"/>
<path d="M16.8334 23.2917V8.70834L29.3334 16L16.8334 23.2917Z" fill="white"/>
</svg>
